:SAMPLES-PER-SECOND 30
:FULLY-SPECIFIED
:DEGREES
479
root  -15.3928 34.7347 -8.40064 -169.962 -0.0548859 179.732
RightUpLeg  -9.4492 -10.1044 1.71008
RightLeg  5.55855 2.18396 0.0689957
RightFoot  3.90198 0.00432469 0.263067
RightToes  -23.7561 -0.10987 -0.214334
Spine  -2.11343 0.308349 -0.341786
Spine1  -4.30487 0.695654 -0.0506808
HEad  -66.5809 -0.410202 6.31699
LeftShoulder1  -1.94126e-019 -3.10601e-018 -2.51263e-017
LeftArm  -9.97617 24.4449 -82.0397
LeftForeArm  31.3216 -17.7644 -2.89986
LeftHand  -0.477286 -2.44224 7.34474
RightShoulder  -4.96962e-017 0 -2.36833e-017
RightArm  -20.6697 -22.9007 79.7785
RightForeArm  54.3741 15.03 1.15043
RightHand  -0.504345 -0.508046 -12.024
LeftUpLeg  -9.44221 -6.02242 -0.960171
LeftLeg  6.57303 13.229 0.661262
LeftFoot  2.98904 -0.0218079 0.855256
LeftToes  -14.5897 1.31424e-006 1.14295e-007
480
root  -15.3905 34.7366 -8.40077 -169.958 -0.0294495 179.732
RightUpLeg  -9.43971 -10.0718 1.71264
RightLeg  5.52517 2.17471 0.0705458
RightFoot  3.92508 0.00429014 0.26356
RightToes  -23.7673 -0.10987 -0.214334
Spine  -2.13085 0.308723 -0.342268
Spine1  -4.33915 0.710867 -0.05217
HEad  -66.5609 -0.36653 6.32913
LeftShoulder1  -1.94126e-019 -3.10601e-018 -2.51263e-017
LeftArm  -9.88893 24.4845 -81.9871
LeftForeArm  31.2505 -17.7917 -2.90557
LeftHand  -0.476208 -2.42698 7.26777
RightShoulder  -4.96962e-017 0 -2.36833e-017
RightArm  -20.5949 -22.9189 79.7386
RightForeArm  54.3909 15.0012 1.15776
RightHand  -0.502704 -0.5267 -12.0707
LeftUpLeg  -9.42543 -6.04904 -0.953535
LeftLeg  6.53459 13.2833 0.655086
LeftFoot  3.00579 -0.0222534 0.862181
LeftToes  -14.5614 1.31424e-006 1.14295e-007
481
root  -15.3886 34.7372 -8.39847 -169.956 -0.0321808 179.732
RightUpLeg  -9.43247 -10.0604 1.71588
RightLeg  5.50268 2.16339 0.0723788
RightFoot  3.92316 0.00425218 0.264103
RightToes  -23.7429 -0.10987 -0.214334
Spine  -2.13075 0.30942 -0.342748
Spine1  -4.33849 0.71196 -0.0522885
HEad  -66.5548 -0.363896 6.28645
LeftShoulder1  -1.94126e-019 -3.10601e-018 -2.51263e-017
LeftArm  -9.82501 24.4965 -81.9562
LeftForeArm  31.2442 -17.8447 -2.91449
LeftHand  -0.474782 -2.44563 7.24674
RightShoulder  -4.96962e-017 0 -2.36833e-017
RightArm  -20.5478 -22.9111 79.6952
RightForeArm  54.4096 14.9929 1.15987
RightHand  -0.50229 -0.499846 -12.0887
LeftUpLeg  -9.41477 -6.03837 -0.949224
LeftLeg  6.50192 13.269 0.646882
LeftFoot  3.03632 -0.0226614 0.868523
LeftToes  -14.7047 1.31424e-006 1.14295e-007
482
root  -15.3852 34.7376 -8.39476 -169.956 -0.035675 179.732
RightUpLeg  -9.43478 -10.0613 1.71928
RightLeg  5.51111 2.15099 0.0744036
RightFoot  3.92433 0.0042117 0.264681
RightToes  -23.7603 -0.10987 -0.214334
Spine  -2.13644 0.309867 -0.343143
Spine1  -4.34984 0.715101 -0.0513413
HEad  -66.6004 -0.362968 6.29693
LeftShoulder1  -1.94126e-019 -3.10601e-018 -2.51263e-017
LeftArm  -9.74325 24.5131 -81.9299
LeftForeArm  31.2141 -17.8594 -2.9165
LeftHand  -0.471364 -2.37365 7.26945
RightShoulder  -4.96962e-017 0 -2.36833e-017
RightArm  -20.4956 -22.9233 79.6494
RightForeArm  54.4005 14.9998 1.1582
RightHand  -0.504814 -0.481377 -12.0233
LeftUpLeg  -9.41207 -6.05068 -0.947052
LeftLeg  6.49834 13.2782 0.646496
LeftFoot  3.0571 -0.02279 0.870522
LeftToes  -14.6843 1.31424e-006 1.14295e-007
483
root  -15.3838 34.7379 -8.39225 -169.955 -0.0479889 179.732
RightUpLeg  -9.43931 -10.0836 1.72172
RightLeg  5.49738 2.16987 0.0722222
RightFoot  3.92702 0.00416959 0.265283
RightToes  -23.7232 -0.10987 -0.214334
Spine  -2.1389 0.31008 -0.34337
Spine1  -4.35469 0.718963 -0.0496331
HEad  -66.5588 -0.362788 6.24867
LeftShoulder1  -1.94126e-019 -3.10601e-018 -2.51263e-017
LeftArm  -9.728 24.5106 -81.9285
LeftForeArm  31.2231 -17.8604 -2.91759
LeftHand  -0.469114 -2.38481 7.25606
RightShoulder  -4.96962e-017 0 -2.36833e-017
RightArm  -20.4753 -22.924 79.6039
RightForeArm  54.3866 14.9872 1.16144
RightHand  -0.503108 -0.466295 -12.0759
LeftUpLeg  -9.413 -6.03161 -0.94362
LeftLeg  6.4788 13.2531 0.640807
LeftFoot  3.05148 -0.0228285 0.871121
LeftToes  -14.6288 1.31424e-006 1.14295e-007
484
root  -15.3824 34.7381 -8.39064 -169.955 -0.0670166 179.732
RightUpLeg  -9.44121 -10.1182 1.72418
RightLeg  5.50031 2.18688 0.07043
RightFoot  3.92908 0.00412676 0.265895
RightToes  -23.7247 -0.10987 -0.214334
Spine  -2.14135 0.310119 -0.343345
Spine1  -4.36272 0.721739 -0.0474689
HEad  -66.5713 -0.362737 6.22189
LeftShoulder1  -1.94126e-019 -3.10601e-018 -2.51263e-017
LeftArm  -9.73461 24.5181 -81.9408
LeftForeArm  31.2333 -17.8626 -2.91691
LeftHand  -0.466627 -2.37238 7.27215
RightShoulder  -4.96962e-017 0 -2.36833e-017
RightArm  -20.4988 -22.9321 79.5637
RightForeArm  54.4127 14.9816 1.16287
RightHand  -0.50322 -0.492775 -12.072
LeftUpLeg  -9.41602 -6.00171 -0.940148
LeftLeg  6.46932 13.2051 0.636356
LeftFoot  3.06944 -0.0227956 0.870609
LeftToes  -14.6506 1.31424e-006 1.14295e-007
485
root  -15.3809 34.7381 -8.39064 -169.954 -0.0670166 179.732
RightUpLeg  -9.4439 -10.1184 1.72664
RightLeg  5.50031 2.18696 0.071016
RightFoot  3.92835 0.00408409 0.266504
RightToes  -23.7247 -0.10987 -0.214334
Spine  -2.14384 0.310043 -0.342985
Spine1  -4.36272 0.721739 -0.0451535
HEad  -66.5713 -0.362737 6.22189
LeftShoulder1  -1.94126e-019 -3.10601e-018 -2.51263e-017
LeftArm  -9.74083 24.5181 -81.9408
LeftForeArm  31.2333 -17.8626 -2.91691
LeftHand  -0.466287 -2.37238 7.27215
RightShoulder  -4.96962e-017 0 -2.36833e-017
RightArm  -20.4988 -22.9321 79.5637
RightForeArm  54.4127 14.9816 1.16287
RightHand  -0.503311 -0.492775 -12.072
LeftUpLeg  -9.41943 -6.00177 -0.939101
LeftLeg  6.46932 13.2051 0.636356
LeftFoot  3.06944 -0.0227101 0.869279
LeftToes  -14.6506 1.31424e-006 1.14295e-007
486
root  -15.3795 34.7378 -8.38965 -169.953 -0.0803986 179.729
RightUpLeg  -9.44863 -10.1515 1.72664
RightLeg  5.50229 2.2 0.069782
RightFoot  3.92136 0.00404249 0.267099
RightToes  -23.7414 -0.10987 -0.214334
Spine  -2.14671 0.309911 -0.342208
Spine1  -4.37049 0.731393 -0.0429919
HEad  -66.6221 -0.349585 6.24936
LeftShoulder1  -1.94126e-019 -3.10601e-018 -2.51263e-017
LeftArm  -9.75391 24.53 -81.9672
LeftForeArm  31.2023 -17.9064 -2.92315
LeftHand  -0.469779 -2.38386 7.22521
RightShoulder  -4.96962e-017 0 -2.36833e-017
RightArm  -20.5134 -22.9396 79.5283
RightForeArm  54.4301 14.9611 1.16797
RightHand  -0.502606 -0.508591 -12.092
LeftUpLeg  -9.42485 -5.99147 -0.937947
LeftLeg  6.47125 13.1841 0.637588
LeftFoot  3.06493 -0.0225905 0.86742
LeftToes  -14.6613 1.31424e-006 1.14295e-007
487
root  -15.3781 34.7367 -8.38816 -169.952 -0.0918579 179.725
RightUpLeg  -9.45484 -10.1573 1.72826
RightLeg  5.51259 2.20375 0.0698003
RightFoot  3.91379 0.00400285 0.267665
RightToes  -23.7429 -0.10987 -0.214334
Spine  -2.15045 0.309783 -0.340403
Spine1  -4.3782 0.738619 -0.040124
HEad  -66.7081 -0.33468 6.28523
LeftShoulder1  -1.94126e-019 -3.10601e-018 -2.51263e-017
LeftArm  -9.74723 24.5372 -81.996
LeftForeArm  31.2205 -17.9042 -2.9217
LeftHand  -0.478511 -2.45783 7.29148
RightShoulder  -4.96962e-017 0 -2.36833e-017
RightArm  -20.5178 -22.9478 79.5187
RightForeArm  54.4374 14.9455 1.1717
RightHand  -0.502897 -0.502845 -12.0868
LeftUpLeg  -9.43467 -6.00726 -0.938884
LeftLeg  6.48464 13.1786 0.635685
LeftFoot  3.04739 -0.0224556 0.865324
LeftToes  -14.6262 1.31424e-006 1.14295e-007
488
root  -15.377 34.7356 -8.38693 -169.95 -0.106689 179.722
RightUpLeg  -9.46211 -10.1604 1.72975
RightLeg  5.53087 2.1886 0.0724131
RightFoot  3.89447 0.00396607 0.26819
RightToes  -23.7295 -0.10987 -0.214334
Spine  -2.15398 0.309717 -0.337754
Spine1  -4.38759 0.740206 -0.0325137
HEad  -66.7718 -0.327334 6.31555
LeftShoulder1  -1.94126e-019 -3.10601e-018 -2.51263e-017
LeftArm  -9.74856 24.5594 -82.0381
LeftForeArm  31.2525 -17.8902 -2.91821
LeftHand  -0.495409 -2.70062 7.33173
RightShoulder  -4.96962e-017 0 -2.36833e-017
RightArm  -20.5412 -22.9602 79.5309
RightForeArm  54.4354 14.9521 1.16975
RightHand  -0.502739 -0.587112 -12.0827
LeftUpLeg  -9.44106 -5.96859 -0.936901
LeftLeg  6.49313 13.1389 0.638515
LeftFoot  3.04727 -0.0223242 0.863282
LeftToes  -14.6761 1.31424e-006 1.14295e-007
489
root  -15.3761 34.7346 -8.38672 -169.948 -0.110046 179.72
RightUpLeg  -9.46744 -10.161 1.73102
RightLeg  5.5438 2.18024 0.0741123
RightFoot  3.88989 0.00393303 0.268662
RightToes  -23.7428 -0.10987 -0.214334
Spine  -2.15797 0.309774 -0.334691
Spine1  -4.39356 0.739339 -0.0293354
HEad  -66.7809 -0.304407 6.31199
LeftShoulder1  -1.94126e-019 -3.10601e-018 -2.51263e-017
LeftArm  -9.76089 24.5679 -82.0677
LeftForeArm  31.2112 -17.8784 -2.91626
LeftHand  -0.497548 -2.68999 7.37137
RightShoulder  -4.96962e-017 0 -2.36833e-017
RightArm  -20.549 -22.9683 79.5449
RightForeArm  54.4012 14.9553 1.1685
RightHand  -0.502534 -0.544677 -12.0956
LeftUpLeg  -9.44576 -5.96155 -0.937256
LeftLeg  6.50472 13.1253 0.639363
LeftFoot  3.03718 -0.0221255 0.860193
LeftToes  -14.666 1.31424e-006 1.14295e-007
490
root  -15.3752 34.7333 -8.38879 -169.947 -0.113525 179.718
RightUpLeg  -9.4756 -10.1435 1.7331
RightLeg  5.57168 2.17016 0.076084
RightFoot  3.87278 0.00390465 0.269068
RightToes  -23.784 -0.10987 -0.214334
Spine  -2.16355 0.310012 -0.331264
Spine1  -4.40496 0.736872 -0.0225913
HEad  -66.8046 -0.319249 6.33118
LeftShoulder1  -1.94126e-019 -3.10601e-018 -2.51263e-017
LeftArm  -9.80247 24.5901 -82.1041
LeftForeArm  31.2088 -17.8575 -2.9125
LeftHand  -0.494608 -2.65724 7.35672
RightShoulder  -4.96962e-017 0 -2.36833e-017
RightArm  -20.5807 -22.9865 79.5761
RightForeArm  54.4066 14.9741 1.16316
RightHand  -0.504194 -0.577527 -12.0469
LeftUpLeg  -9.45175 -5.94624 -0.937442
LeftLeg  6.52552 13.1023 0.644244
LeftFoot  3.01011 -0.021639 0.852632
LeftToes  -14.703 1.31424e-006 1.14295e-007
491
root  -15.3739 34.7316 -8.39158 -169.945 -0.109406 179.716
RightUpLeg  -9.48232 -10.1551 1.73269
RightLeg  5.59577 2.18083 0.0752648
RightFoot  3.84397 0.0038818 0.269394
RightToes  -23.7223 -0.10987 -0.214334
Spine  -2.17082 0.310491 -0.327126
Spine1  -4.41983 0.733657 -0.0146044
HEad  -66.8169 -0.322258 6.31369
LeftShoulder1  -1.94126e-019 -3.10601e-018 -2.51263e-017
LeftArm  -9.85355 24.6155 -82.147
LeftForeArm  31.1978 -17.8279 -2.90765
LeftHand  -0.488091 -2.57218 7.33437
RightShoulder  -4.96962e-017 0 -2.36833e-017
RightArm  -20.6129 -23.007 79.6095
RightForeArm  54.3932 14.9856 1.15943
RightHand  -0.504484 -0.554859 -12.0431
LeftUpLeg  -9.46292 -5.94168 -0.938583
LeftLeg  6.56023 13.1054 0.652278
LeftFoot  2.99724 -0.0214616 0.849875
LeftToes  -14.6749 1.31424e-006 1.14295e-007
492
root  -15.3707 34.7293 -8.3978 -169.944 -0.0911865 179.713
RightUpLeg  -9.4861 -10.1485 1.73296
RightLeg  5.62587 2.19342 0.0742589
RightFoot  3.82246 0.00386539 0.269629
RightToes  -23.7163 -0.10987 -0.214334
Spine  -2.1881 0.31127 -0.321171
Spine1  -4.45483 0.730548 -0.00289312
HEad  -66.7107 -0.374753 6.37207
LeftShoulder1  -1.94126e-019 -3.10601e-018 -2.51263e-017
LeftArm  -9.9361 24.6519 -82.199
LeftForeArm  31.2143 -17.7428 -2.8956
LeftHand  -0.477845 -2.46648 7.27422
RightShoulder  -4.96962e-017 0 -2.36833e-017
RightArm  -20.6622 -23.0402 79.6703
RightForeArm  54.3989 14.9747 1.16051
RightHand  -0.504467 -0.538198 -12.047
LeftUpLeg  -9.47833 -5.98972 -0.943211
LeftLeg  6.6265 13.1663 0.670385
LeftFoot  2.9628 -0.0210901 0.8441
LeftToes  -14.6746 1.31424e-006 1.14295e-007
493
root  -15.3691 34.7274 -8.40112 -169.943 -0.0793304 179.711
RightUpLeg  -9.48497 -10.1346 1.73311
RightLeg  5.62955 2.19039 0.0754962
RightFoot  3.80819 0.00385632 0.269758
RightToes  -23.7351 -0.10987 -0.214334
Spine  -2.20467 0.312408 -0.316256
Spine1  -4.48822 0.728399 0.00651772
HEad  -66.5577 -0.414001 6.40048
LeftShoulder1  -1.94126e-019 -3.10601e-018 -2.51263e-017
LeftArm  -10.0049 24.675 -82.2298
LeftForeArm  31.1617 -17.7152 -2.89347
LeftHand  -0.471739 -2.33674 7.29532
RightShoulder  -4.96962e-017 0 -2.36833e-017
RightArm  -20.728 -23.046 79.6856
RightForeArm  54.4834 14.9282 1.16397
RightHand  -0.503562 -0.541368 -12.0731
LeftUpLeg  -9.4789 -5.96434 -0.943512
LeftLeg  6.63701 13.1497 0.67195
LeftFoot  2.93942 -0.0207585 0.838946
LeftToes  -14.65 1.31424e-006 1.14295e-007
